inDegrees=yes
name=ik_S55_A07_T02
DataType=double
version=3
OpenSimVersion=4.3-2021-08-27-4bc7ad9
endheader
time	pelvis_tilt	pelvis_list	pelvis_rotation	pelvis_tx	pelvis_ty	pelvis_tz	hip_flexion_r	hip_adduction_r	hip_rotation_r	knee_angle_r	knee_angle_r_beta	ankle_angle_r	subtalar_angle_r	mtp_angle_r	hip_flexion_l	hip_adduction_l	hip_rotation_l	knee_angle_l	knee_angle_l_beta	ankle_angle_l	subtalar_angle_l	mtp_angle_l	lumbar_extension	lumbar_bending	lumbar_rotation	arm_flex_r	arm_add_r	arm_rot_r	elbow_flex_r	pro_sup_r	wrist_flex_r	wrist_dev_r	arm_flex_l	arm_add_l	arm_rot_l	elbow_flex_l	pro_sup_l	wrist_flex_l	wrist_dev_l
13.3599999999998	-3.249866008457325	-0.8978405017328606	19.5032637030785	0	0.9399999999999999	0	39.75601992657693	-11.92527880013599	-10.85176504128519	51.36133512419286	0.8964244061373762	0	0	0	39.75601992657693	-11.92527880013599	-10.85176504128519	51.36133512419286	0.8964244061373762	0	0	0	-3.215223354468052	-1.65711989958302	2.698448317128452	74.63312220068599	-19.1010354816809	10.28863738062153	100.8160785595863	125.0517652080235	0	0	16.19899794509335	-19.46098221825821	-6.862395632655326	66.83299135636349	135.8616836276892	0	0
13.3799999999998	-3.256498134436592	-0.8891451495021206	19.52512900995371	0	0.9399999999999999	0	39.75732990624616	-11.92361534112169	-10.8512927647641	51.36194699294882	0.8964350852617576	0	0	0	39.75732990624616	-11.92361534112169	-10.8512927647641	51.36194699294882	0.8964350852617576	0	0	0	-3.21899703396599	-1.644807280592263	2.672691274546178	74.23151746760801	-19.03002659734584	10.21820165304697	100.6096261575996	124.7342203224236	0	0	16.17040643701151	-19.42881463172078	-6.949361322645635	66.84541739340027	135.9027136416987	0	0
13.3999999999998	-3.252861021431845	-0.8852412034687012	19.56470246482295	0	0.9399999999999999	0	39.75913912184327	-11.92131403973741	-10.85063969160475	51.36279015995905	0.8964498013022304	0	0	0	39.75913912184327	-11.92131403973741	-10.85063969160475	51.36279015995905	0.8964498013022304	0	0	0	-3.215212697420654	-1.638853675921849	2.626908187712011	73.34053556223249	-18.82770368348761	10.02219361161595	99.89888901223932	123.6619893577835	0	0	16.15200151579272	-19.40324369731207	-6.948613596237272	66.85818510200261	135.9330338721438	0	0
13.4199999999998	-3.254371646683123	-0.8734044585360976	19.57888309753762	0	0.9399999999999999	0	39.76069017564777	-11.91934729657642	-10.85008088926313	51.36351470993073	0.8964624470848314	0	0	0	39.76069017564777	-11.91934729657642	-10.85008088926313	51.36351470993073	0.8964624470848314	0	0	0	-3.212504968168534	-1.627601181581817	2.640942529601243	72.91058505121084	-18.75161569461533	9.946513802853563	100.1820100229047	123.9089515513699	0	0	16.13361295998139	-19.38427093465646	-6.857220847127418	66.88584372578998	135.891771511718	0	0
13.4399999999998	-3.259203029883103	-0.8838632270248146	19.59640871118464	0	0.9399999999999999	0	39.76316153294947	-11.91620819073237	-10.84918937153044	51.36466636973186	0.896482547340224	0	0	0	39.76316153294947	-11.91620819073237	-10.84918937153044	51.36466636973186	0.896482547340224	0	0	0	-3.222099913168212	-1.628982227995493	2.561382726098751	72.47306353113679	-18.5993162466576	10.04286573552011	98.93338998552545	122.2095607417117	0	0	16.14065340808309	-19.40027554891097	-6.871126647554315	66.89874693484909	135.8710455796062	0	0
13.4599999999998	-3.26045691161438	-0.8804847890102301	19.59135943909473	0	0.9399999999999999	0	39.76492862687183	-11.91396807325313	-10.84855262930147	51.3654906937308	0.8964969345081087	0	0	0	39.76492862687183	-11.91396807325313	-10.84855262930147	51.3654906937308	0.8964969345081087	0	0	0	-3.223083074995262	-1.621218609426985	2.506461898462184	72.02539815530825	-18.49060270992171	10.07786057295659	98.42217896943787	121.2657562909119	0	0	16.07558730512807	-19.4296040293247	-6.939912066511063	66.93369003825346	135.8425874101644	0	0
13.4799999999998	-3.274800449465452	-0.8780100039871478	19.58521913274379	0	0.9399999999999999	0	39.76692678168912	-11.91143404240913	-10.84783233709651	51.36642180011338	0.896513185380171	0	0	0	39.76692678168912	-11.91143404240913	-10.84783233709651	51.36642180011338	0.896513185380171	0	0	0	-3.236284783667843	-1.611421557285331	2.474343631298308	71.63138103428794	-18.45975759761767	10.21951150686959	97.89076819822301	120.2590401329926	0	0	16.06279203192738	-19.40101810518321	-6.948552651281812	66.96643728211504	135.8679139910145	0	0
13.4999999999998	-3.279888601303119	-0.8788037020516279	19.59197973889352	0	0.9399999999999999	0	39.76864876031699	-11.90925448222182	-10.84721230601479	51.36722515098253	0.8965272064978865	0	0	0	39.76864876031699	-11.90925448222182	-10.84721230601479	51.36722515098253	0.8965272064978865	0	0	0	-3.241935015992223	-1.607519370445579	2.43502932950907	71.14073637245419	-18.37343801234138	10.3874176958206	97.33077903183361	119.3944542847692	0	0	16.0686147839583	-19.37419788910821	-6.949240279545146	66.98277129844369	135.8830950217783	0	0
13.5199999999998	-3.291837085327101	-0.8739873106793561	19.60548191629412	0	0.9399999999999999	0	39.77014632324769	-11.90736470739555	-10.84667409096961	51.3679254162795	0.896539428432956	0	0	0	39.77014632324769	-11.90736470739555	-10.84667409096961	51.3679254162795	0.896539428432956	0	0	0	-3.251693385040617	-1.598176629326925	2.429002995682943	70.63086684772266	-18.31626648416913	10.37122507663591	97.71688558286702	119.6665388377751	0	0	16.08637817581398	-19.34091035244634	-6.948285952501513	66.97559972529517	135.8810701773014	0	0
13.5399999999998	-3.275119132452079	-0.8796840123726062	19.68824533861877	0	0.9399999999999999	0	39.77291227940382	-11.90386550241824	-10.84567817304406	51.36921445623034	0.896561926424288	0	0	0	39.77291227940382	-11.90386550241824	-10.84567817304406	51.36921445623034	0.896561926424288	0	0	0	-3.239873087445177	-1.601181400065527	2.329534978907238	70.05514383149919	-18.22876123978971	10.54099324466605	96.07557461965919	117.3548420270085	0	0	16.05532571186178	-19.37085513178549	-6.96509803756292	67.01388922838953	135.8665851858165	0	0
13.5599999999998	-3.275182223608958	-0.8847192298182103	19.68606292460836	0	0.9399999999999999	0	39.77551525038044	-11.90057315865993	-10.84474087382337	51.37042656402608	0.8965830816962128	0	0	0	39.77551525038044	-11.90057315865993	-10.84474087382337	51.37042656402608	0.8965830816962128	0	0	0	-3.24259897790598	-1.601070960913976	2.265049339703455	69.61037854900222	-18.13580898737785	10.6547942811056	95.30330447843599	116.0990689738119	0	0	16.02036295486509	-19.41107410889724	-7.0480824342049	67.05133565072002	135.8549989647393	0	0
13.5799999999998	-3.279166209773103	-0.881438726091575	19.70391762959808	0	0.9399999999999999	0	39.77706646224696	-11.89861918432939	-10.84418371630243	51.37115112803675	0.8965957277238404	0	0	0	39.77706646224696	-11.89861918432939	-10.84418371630243	51.37115112803675	0.8965957277238404	0	0	0	-3.245476681387913	-1.595419145818155	2.251605174244101	69.17703451829588	-18.04353895978146	10.68930814703676	95.58915148951731	116.3646848899555	0	0	15.9934103702851	-19.3785889096638	-7.044638117378591	67.05965163023959	135.8772108798815	0	0
